<?xml version="1.0" standalone="no"?><!DOCTYPE svg PUBLIC "-//W3C//DTD SVG 1.1//EN" "http://www.w3.org/Graphics/SVG/1.1/DTD/svg11.dtd"><svg t="1775730270787" class="icon" viewBox="0 0 3713 1024" version="1.1" xmlns="http://www.w3.org/2000/svg" p-id="12522" xmlns:xlink="http://www.w3.org/1999/xlink" width="174.046875" height="48"><path d="M3580.8 1014.4l-153.6-358.4c-3.2-3.2 0-9.6 3.2-16L3712 262.4c3.2-6.4 0-12.8-6.4-12.8H3107.2L2944 841.6l-92.8 166.4 723.2 16c6.4 0 9.6-6.4 6.4-9.6z" fill="#d44a42" p-id="12523"></path><path d="M2851.2 1008l259.2-38.4-259.2-89.6z" fill="#d44a42" p-id="12524"></path><path d="M131.2 1014.4l153.6-358.4c3.2-3.2 0-9.6-3.2-16L3.2 262.4c-3.2-6.4 0-12.8 6.4-12.8H608l160 592 92.8 166.4-723.2 16c-6.4 0-9.6-6.4-6.4-9.6z" fill="#d44a42" p-id="12525"></path><path d="M860.8 1008l-259.2-38.4 259.2-89.6z" fill="#d44a42" p-id="12526"></path><path d="M601.6 969.6s1180.8-435.2 2508.8 0L3168 163.2s-1142.4-364.8-2614.4 0l48 806.4z" fill="#EF5D54" p-id="12527"></path></svg>